# xmcd
#
# Track frame offsets: 
#        150
#        8585
#        14796
#        20901
#        25335
#        31685
#        37035
#        42430
#        48165
#        52245
#        56962
#        65395
#        69015
#        72760
#        81202
#        82955
#        93485
#        98480
#        106665
#        112175
#        117420
#        124302
#        126105
#        128655
#        137680
#        142260
#        150380
#        159003
#        163055
#        168130
#        171855
#        181545
#        187120
#        191320
#        197628
#        200055
#        205670
#        211203
#        214303
#        223260
#        228400
#
# Disc length: 3133 seconds
#
# Revision: 2
# Processed by: cddbd v1.5.2PL0 Copyright (c) Steve Scherf et al.
# Submitted via: ExactAudioCopy v1.3
#
DISCID=480c3b29
DTITLE=Koledy - Vánoèní koledy
DYEAR=1900
DGENRE=Other
TTITLE0=Dětský sbor Camerata - Veselé vánoèní hody
TTITLE1=Dětský sbor Camerata - Pospìste sem pacholátka
TTITLE2=Dětský sbor Camerata - Veselte se, radujte se
TTITLE3=Dětský sbor Camerata - Sem, pastýøi
TTITLE4=Dětský sbor Camerata - Stìdrej veèer nastal
TTITLE5=Dětský sbor Camerata - Slyseli jsme v betlémì
TTITLE6=Dětský sbor Camerata - Pojïte chlapci k nám
TTITLE7=Dětský sbor Camerata - Pásli ovce valasi
TTITLE8=Dětský sbor Camerata - Slyste, slyste pastuskové
TTITLE9=Dětský sbor Camerata - Pùjdem spolu do Betléma
TTITLE10=Dětský sbor Camerata - Kyrie Eleison
TTITLE11=Dětský sbor Camerata - Jak jsi krásné neviòátko
TTITLE12=Dětský sbor Camerata - Hajej, nynej, Jezísku
TTITLE13=Dětský sbor Camerata - Nesem vám noviny
TTITLE14=Dětský sbor Camerata - Pastýøové vstávejte
TTITLE15=Dětský sbor Camerata - Já malý pøicházím
TTITLE16=Dětský sbor Camerata - Hlehle, tamhle v Betlémì
TTITLE17=Dětský sbor Camerata - Tichá noc
TTITLE18=Dětský sbor Camerata - Já bych rád k Betlému
TTITLE19=Dětský sbor Camerata - K Jezískovi do Betléma
TTITLE20=Dětský sbor Camerata - Stìstí, zdraví, pokoj svatý
TTITLE21=Dětský sbor Camerata - Já bych rád sel k Betlému
TTITLE22=Dětský sbor Camerata - Hore, hore, pastuskové
TTITLE23=Dětský sbor Camerata - Radostnì budem zpívat
TTITLE24=Dětský sbor Camerata - Chtíc, aby spal
TTITLE25=Dětský sbor Camerata - Ejhle, chasa nase
TTITLE26=Dětský sbor Camerata - U Betléma dnes Maria
TTITLE27=Dětský sbor Camerata - Co to znamenati má
TTITLE28=Dětský sbor Camerata - Dej Bùh stìstí
TTITLE29=Dětský sbor Camerata - Vzhùru, bratøi milí
TTITLE30=Dětský sbor Camerata - Aj, dnes v Betlémì
TTITLE31=Dětský sbor Camerata - Vondrási, Matósi
TTITLE32=Dětský sbor Camerata - S pastýøi pospíchejte
TTITLE33=Dětský sbor Camerata - Poslechnìte mnì málo
TTITLE34=Dětský sbor Camerata - Poslechnìte národové
TTITLE35=Dětský sbor Camerata - Pochválen buï
TTITLE36=Dětský sbor Camerata - Novina velmi dobrá
TTITLE37=Dětský sbor Camerata - Rychle bratøi
TTITLE38=Dětský sbor Camerata - Vánoèní ukolébavka
TTITLE39=Dětský sbor Camerata - Poslouchejte, køestané
TTITLE40=Dětský sbor Camerata - Narodil se Kristus Pán
EXTD=
EXTT0=
EXTT1=
EXTT2=
EXTT3=
EXTT4=
EXTT5=
EXTT6=
EXTT7=
EXTT8=
EXTT9=
EXTT10=
EXTT11=
EXTT12=
EXTT13=
EXTT14=
EXTT15=
EXTT16=
EXTT17=
EXTT18=
EXTT19=
EXTT20=
EXTT21=
EXTT22=
EXTT23=
EXTT24=
EXTT25=
EXTT26=
EXTT27=
EXTT28=
EXTT29=
EXTT30=
EXTT31=
EXTT32=
EXTT33=
EXTT34=
EXTT35=
EXTT36=
EXTT37=
EXTT38=
EXTT39=
EXTT40=
PLAYORDER=
